<svg id="a2f8ddb4-7e50-4f4b-b1cd-72eb5f8490e9" data-name="Layer 2" xmlns="http://www.w3.org/2000/svg" width="2048" height="2048" viewBox="0 0 2048 2048"><defs><style>.be13afa1-ebd6-410b-ba68-50c93a727330{fill:#131415;}.ae3fcf11-7e88-40dc-b297-8480eb52ae38{opacity:0.1;}.aaa166ed-82cb-4337-a132-b85029e33c44,.ba887f90-eac5-402e-a380-37063ac6a2cc,.e68bac56-8f46-437d-9526-329e62c32d8c{fill:#666;}.aaa166ed-82cb-4337-a132-b85029e33c44,.e68bac56-8f46-437d-9526-329e62c32d8c,.eff32e76-34c0-4efc-ab31-94e8dd4a2a62{stroke:#666;stroke-miterlimit:10;stroke-width:4px;}.aaa166ed-82cb-4337-a132-b85029e33c44{opacity:0.5;}.eff32e76-34c0-4efc-ab31-94e8dd4a2a62{fill:none;}.b4fcc41e-3bbb-4520-95c1-317ae76aa54e{fill:#383838;}.b4e0c75b-b4c5-401a-b1b8-19a56e906460{fill:#848484;}.bd82f546-9f83-4a59-9e30-d803eac975dc{fill:#fff;}</style></defs><rect class="be13afa1-ebd6-410b-ba68-50c93a727330" width="2048" height="2048"/><g id="a4b64461-47d3-4e85-9404-98e47afc072f" data-name="Layer 6" class="ae3fcf11-7e88-40dc-b297-8480eb52ae38"><polygon id="bb98d567-0792-4201-80c0-67d8cbeb6fd8" data-name="triangle36" class="aaa166ed-82cb-4337-a132-b85029e33c44" points="1985.34 2273.48 1871.01 1851.6 2460.28 1839.53 1985.34 2273.48"/><polygon id="f3be5b50-77f1-4d95-b3f8-9c8e5d95fa6c" data-name="triangle36" class="eff32e76-34c0-4efc-ab31-94e8dd4a2a62" points="926.99 1968.38 993.82 1559.34 288.41 1575.74 926.99 1968.38"/><polygon id="f34794eb-12e4-45d2-94a7-e00f5c3ea67d" data-name="triangle36" class="eff32e76-34c0-4efc-ab31-94e8dd4a2a62" points="926.99 1968.38 288.41 1575.74 -80.08 1852.78 926.99 1968.38"/><polygon id="e29fe63e-b31a-4a14-a44d-d6558d37e2da" data-name="triangle36" class="eff32e76-34c0-4efc-ab31-94e8dd4a2a62" points="926.99 1968.38 -93.77 2077.85 -80.08 1852.78 926.99 1968.38"/><polygon id="ba66391c-3a26-4330-a96b-ba1be28a31ff" data-name="triangle36" class="aaa166ed-82cb-4337-a132-b85029e33c44" points="288.41 1575.74 -3.82 1227.05 -80.08 1852.78 288.41 1575.74"/><polygon id="a92c0086-b43a-4191-9ce6-2c1489ed9551" data-name="triangle36" class="eff32e76-34c0-4efc-ab31-94e8dd4a2a62" points="2460.28 1839.53 233.29 535.31 861.48 1291.8 2460.28 1839.53"/><polygon id="ba5004ed-6181-4ac9-ace2-8cfda6f9619c" data-name="triangle36" class="eff32e76-34c0-4efc-ab31-94e8dd4a2a62" points="993.82 1559.34 288.41 1575.74 861.48 1291.8 993.82 1559.34"/><polygon id="efeafca2-1e5a-46b9-a167-acb5e7eb9ad8" data-name="triangle36" class="eff32e76-34c0-4efc-ab31-94e8dd4a2a62" points="288.41 1575.74 -3.82 1227.05 861.48 1291.8 288.41 1575.74"/><polygon id="e4376ff2-9abf-418f-8ce1-c0ee7ebf2f54" data-name="triangle36" class="ba887f90-eac5-402e-a380-37063ac6a2cc" points="-3.82 1227.05 233.29 535.31 861.48 1291.8 -3.82 1227.05"/><polygon id="e1aa25bf-d588-4a2b-9ae5-1e8c5fccfafb" data-name="triangle36" class="eff32e76-34c0-4efc-ab31-94e8dd4a2a62" points="926.99 1968.38 993.82 1559.34 1462.75 1665.5 926.99 1968.38"/><polygon id="f4c6db85-a82a-4a39-9fad-51676e89a6c5" data-name="triangle36" class="eff32e76-34c0-4efc-ab31-94e8dd4a2a62" points="2460.28 1839.53 1871.01 1851.6 1462.75 1665.5 2460.28 1839.53"/><polygon id="b15508f8-2ffc-400d-960b-45203acc8bfe" data-name="triangle36" class="eff32e76-34c0-4efc-ab31-94e8dd4a2a62" points="2460.28 1839.53 861.48 1291.8 1462.75 1665.5 2460.28 1839.53"/><polygon id="f2fcc553-0f2a-4506-ba64-fd172f08f298" data-name="triangle36" class="e68bac56-8f46-437d-9526-329e62c32d8c" points="993.82 1559.34 861.48 1291.8 1462.75 1665.5 993.82 1559.34"/><polygon id="b6c4433d-b1e9-41b2-9438-daadec7f22d0" data-name="triangle36" class="eff32e76-34c0-4efc-ab31-94e8dd4a2a62" points="1985.34 2273.48 1871.01 1851.6 1462.75 1665.5 1985.34 2273.48"/></g><path class="b4fcc41e-3bbb-4520-95c1-317ae76aa54e" d="M730.92,479.28H874L365.18,1568.72H222.12Z"/><path class="b4e0c75b-b4c5-401a-b1b8-19a56e906460" d="M1201.87,479.28h143.06L836.13,1568.72H693.07Z"/><path class="bd82f546-9f83-4a59-9e30-d803eac975dc" d="M1681.87,479.28h143.06l-508.8,1089.44H1173.07Z"/></svg>