<svg xmlns="http://www.w3.org/2000/svg" width="2000" height="2000" viewBox="0 0 2000 2000"><defs><style>.a25a530a-d4d5-45e7-9e99-e353af77caf7{opacity:0.1;}.a726bc8c-bc97-4bda-9219-35d4c777c68f{fill:#131415;}.a90f38a8-779e-4ca5-a752-6db798f12dc7,.babb428d-1695-4eff-ad50-0848f78786e9{fill:#666;}.aca62a27-0bf8-4f74-a477-5833b8be8d76,.babb428d-1695-4eff-ad50-0848f78786e9{stroke:#666;stroke-miterlimit:10;stroke-width:4px;}.a90f38a8-779e-4ca5-a752-6db798f12dc7,.aca62a27-0bf8-4f74-a477-5833b8be8d76,.babb428d-1695-4eff-ad50-0848f78786e9{opacity:0.05;}.aca62a27-0bf8-4f74-a477-5833b8be8d76{fill:none;}.e1fa35b8-5a40-411c-8fbb-d13fa227a583{fill:#383838;}.bfa77810-6d2b-40ab-ac02-d688bde3a965{fill:#848484;}.b9555772-5c54-4294-9d7b-26562dee0527{fill:#fff;}</style></defs><g id="f9501daa-19e6-4a3e-ab7e-cfb83dbf6122" data-name="Layer 7"><rect class="a726bc8c-bc97-4bda-9219-35d4c777c68f" width="2000" height="2000"/><polygon id="a3cc1ac2-8cb1-4575-b835-95e0241b3bbf" data-name="triangle36" class="babb428d-1695-4eff-ad50-0848f78786e9" points="1493.39 1983.42 1457.96 1852.69 1640.56 1848.95 1493.39 1983.42"/><polygon id="bdc01204-ae31-474d-8f83-6c4beabd0746" data-name="triangle36" class="aca62a27-0bf8-4f74-a477-5833b8be8d76" points="1165.42 1888.88 1186.13 1762.13 967.54 1767.21 1165.42 1888.88"/><polygon id="b8ca0a60-5e15-4653-a964-9f88a1a59435" data-name="triangle36" class="aca62a27-0bf8-4f74-a477-5833b8be8d76" points="1165.42 1888.88 967.54 1767.21 853.35 1853.06 1165.42 1888.88"/><polygon id="f11a1bdd-0ae8-48c2-98a3-19a03cf1ada5" data-name="triangle36" class="aca62a27-0bf8-4f74-a477-5833b8be8d76" points="1165.42 1888.88 849.11 1922.8 853.35 1853.06 1165.42 1888.88"/><polygon id="bf045764-b0f8-4853-ac55-8f541c5ebf5b" data-name="triangle36" class="babb428d-1695-4eff-ad50-0848f78786e9" points="967.54 1767.21 876.99 1659.16 853.35 1853.06 967.54 1767.21"/><polygon id="f885b0ca-7d7c-443a-b016-80ef9a2b0a74" data-name="triangle36" class="aca62a27-0bf8-4f74-a477-5833b8be8d76" points="876.99 1659.16 710.27 1713.44 853.35 1853.06 876.99 1659.16"/><polygon id="b84d79f0-5573-47a5-aa3c-450fb48ec233" data-name="triangle36" class="aca62a27-0bf8-4f74-a477-5833b8be8d76" points="849.11 1922.8 853.35 1853.06 789.66 1908.97 849.11 1922.8"/><polygon id="a9295504-67c2-4c98-817f-7ad836481d41" data-name="triangle36" class="aca62a27-0bf8-4f74-a477-5833b8be8d76" points="853.35 1853.06 710.27 1713.44 789.66 1908.97 853.35 1853.06"/><polygon id="a939e73d-b7eb-49c7-97d8-3a42e6a43d62" data-name="triangle36" class="aca62a27-0bf8-4f74-a477-5833b8be8d76" points="1165.42 1888.88 849.11 1922.8 893.82 2092.56 1165.42 1888.88"/><polygon id="a86cb585-d67f-4263-86c4-89b6cb3a5ddb" data-name="triangle36" class="aca62a27-0bf8-4f74-a477-5833b8be8d76" points="841.01 2131.12 789.66 1908.97 893.82 2092.56 841.01 2131.12"/><polygon id="b8eca20c-def9-4ee9-b3bc-ad0e10afc73f" data-name="triangle36" class="aca62a27-0bf8-4f74-a477-5833b8be8d76" points="849.11 1922.8 789.66 1908.97 893.82 2092.56 849.11 1922.8"/><polygon id="ae1009d9-46af-4bca-b3a2-1e42cc789f4d" data-name="triangle36" class="aca62a27-0bf8-4f74-a477-5833b8be8d76" points="1186.13 1762.13 967.54 1767.21 1145.13 1679.22 1186.13 1762.13"/><polygon id="bfa5cf75-71e7-4d87-aa93-c462364d440e" data-name="triangle36" class="aca62a27-0bf8-4f74-a477-5833b8be8d76" points="967.54 1767.21 876.99 1659.16 1145.13 1679.22 967.54 1767.21"/><polygon id="e749440f-d720-49ca-b691-f244b4688ecd" data-name="triangle36" class="a90f38a8-779e-4ca5-a752-6db798f12dc7" points="795.99 1501.16 869.46 1286.8 1064.13 1521.22 795.99 1501.16"/><polygon id="b8a26b93-0ead-46cd-813d-2b6f727a9cd5" data-name="triangle36" class="aca62a27-0bf8-4f74-a477-5833b8be8d76" points="841.01 2131.12 789.66 1908.97 679.18 2089.84 841.01 2131.12"/><polygon id="b8bba450-b160-4cb2-bde2-b65473983c37" data-name="triangle36" class="babb428d-1695-4eff-ad50-0848f78786e9" points="1165.42 1888.88 893.82 2092.56 1330.34 2075.52 1165.42 1888.88"/><polygon id="a0379697-802c-45f7-b5c4-5b4f7304dc00" data-name="triangle36" class="aca62a27-0bf8-4f74-a477-5833b8be8d76" points="1330.34 2075.52 1165.42 1888.88 1331.45 1795.02 1330.34 2075.52"/><polygon id="bc249ab9-fa28-4279-9a9a-404e2c6fa8ce" data-name="triangle36" class="aca62a27-0bf8-4f74-a477-5833b8be8d76" points="1165.42 1888.88 1186.13 1762.13 1331.45 1795.02 1165.42 1888.88"/><polygon id="b6f1c129-3316-435e-b29f-2564b08afcee" data-name="triangle36" class="aca62a27-0bf8-4f74-a477-5833b8be8d76" points="1640.56 1848.95 1457.96 1852.69 1331.45 1795.02 1640.56 1848.95"/><polygon id="e35476d6-9ba0-447e-b943-952fc54b1880" data-name="triangle36" class="aca62a27-0bf8-4f74-a477-5833b8be8d76" points="1640.56 1848.95 1145.13 1679.22 1331.45 1795.02 1640.56 1848.95"/><polygon id="ffd8e5ca-25e7-44b1-9a86-491c3dbf1c0b" data-name="triangle36" class="babb428d-1695-4eff-ad50-0848f78786e9" points="1151.13 1630.13 1110.13 1547.22 1296.45 1663.02 1151.13 1630.13"/><polygon id="a5507a84-38c7-4e85-a9c0-82f833c2f7b7" data-name="triangle36" class="aca62a27-0bf8-4f74-a477-5833b8be8d76" points="1493.39 1983.42 1457.96 1852.69 1331.45 1795.02 1493.39 1983.42"/><polygon id="e20f7c18-9f7b-49cb-963a-bbf78b134c25" data-name="triangle36" class="aca62a27-0bf8-4f74-a477-5833b8be8d76" points="1493.39 1983.42 1330.34 2075.52 1331.45 1795.02 1493.39 1983.42"/><polygon id="be54900b-5990-49f1-b566-dd53c1fdbb02" data-name="triangle36" class="aca62a27-0bf8-4f74-a477-5833b8be8d76" points="876.99 1659.16 710.27 1713.44 702.93 1613.31 876.99 1659.16"/><polygon id="e3f4d0b0-6868-454d-bf2b-51826d67e22d" data-name="triangle36" class="aca62a27-0bf8-4f74-a477-5833b8be8d76" points="509.04 1298.59 597.37 1630.06 677.55 1546.12 509.04 1298.59"/><polygon id="b84bd8ef-5703-43ed-bfc4-3c3174304c84" data-name="triangle36" class="babb428d-1695-4eff-ad50-0848f78786e9" points="2007.09 1277.67 1871.82 1270.75 1924.97 1096.02 2007.09 1277.67"/><polygon id="b0b82966-f15f-486b-9b77-4c2813df5681" data-name="triangle36" class="aca62a27-0bf8-4f74-a477-5833b8be8d76" points="1770.38 1651.06 1656.32 1592.02 1593.27 1801.38 1770.38 1651.06"/><polygon id="f83f0741-84ed-4af0-a2ad-df911a869534" data-name="triangle36" class="aca62a27-0bf8-4f74-a477-5833b8be8d76" points="1770.38 1651.06 1593.27 1801.38 1639.41 1936.58 1770.38 1651.06"/><polygon id="b004a458-4690-44d7-a565-1ac087665dc0" data-name="triangle36" class="aca62a27-0bf8-4f74-a477-5833b8be8d76" points="1770.38 1651.06 1704.39 1962.27 1639.41 1936.58 1770.38 1651.06"/><polygon id="eef193e7-a61c-41d1-bc6e-59199bd1f2f4" data-name="triangle36" class="babb428d-1695-4eff-ad50-0848f78786e9" points="1593.27 1801.38 1462.44 1853.9 1639.41 1936.58 1593.27 1801.38"/><polygon id="b90210da-4424-4a39-988f-c88b9af6a0e3" data-name="triangle36" class="aca62a27-0bf8-4f74-a477-5833b8be8d76" points="1462.44 1853.9 1462.27 2029.23 1639.41 1936.58 1462.44 1853.9"/><polygon id="a7fc1e53-eb11-4931-8fe0-23131ca36066" data-name="triangle36" class="aca62a27-0bf8-4f74-a477-5833b8be8d76" points="1704.39 1962.27 1639.41 1936.58 1672.79 2014.49 1704.39 1962.27"/><polygon id="af208025-6bdb-4cfb-8715-6bbdc16e9a70" data-name="triangle36" class="aca62a27-0bf8-4f74-a477-5833b8be8d76" points="1639.41 1936.58 1462.27 2029.23 1672.79 2014.49 1639.41 1936.58"/><polygon id="b5d9a801-4cf4-4189-8b7e-c614c043ed9c" data-name="triangle36" class="aca62a27-0bf8-4f74-a477-5833b8be8d76" points="1770.38 1651.06 1704.39 1962.27 1879.64 1972.49 1770.38 1651.06"/><polygon id="ae6a527b-fa3e-4206-83ba-7dc8b41a283f" data-name="triangle36" class="aca62a27-0bf8-4f74-a477-5833b8be8d76" points="1957.52 1977.04 1899.9 2034.66 1879.64 1972.49 1957.52 1977.04"/><polygon id="f923ad7a-02e6-4c86-9284-82f0ea0419d5" data-name="triangle36" class="aca62a27-0bf8-4f74-a477-5833b8be8d76" points="1899.9 2034.66 1672.79 2014.49 1879.64 1972.49 1899.9 2034.66"/><polygon id="b987808f-6b63-444e-bb78-b3e884063da4" data-name="triangle36" class="aca62a27-0bf8-4f74-a477-5833b8be8d76" points="1704.39 1962.27 1672.79 2014.49 1879.64 1972.49 1704.39 1962.27"/><polygon id="e4a57c65-5cce-4db4-be48-38358c5ccd56" data-name="triangle36" class="aca62a27-0bf8-4f74-a477-5833b8be8d76" points="1656.32 1592.02 1593.27 1801.38 1564.78 1605.25 1656.32 1592.02"/><polygon id="b00b29af-fc18-464e-8d22-94aacb7856c1" data-name="triangle36" class="aca62a27-0bf8-4f74-a477-5833b8be8d76" points="1593.27 1801.38 1462.44 1853.9 1564.78 1605.25 1593.27 1801.38"/><polygon id="e3431cd1-5c6b-4d76-8a9c-c52be2e7cfc3" data-name="triangle36" class="a90f38a8-779e-4ca5-a752-6db798f12dc7" points="1462.44 1853.9 1281.5 1717.49 1564.78 1605.25 1462.44 1853.9"/><polygon id="e98d13a0-2247-4f42-a21b-2ce73dda2b81" data-name="triangle36" class="babb428d-1695-4eff-ad50-0848f78786e9" points="1770.38 1651.06 1879.64 1972.49 1999 1552.27 1770.38 1651.06"/><polygon id="f9c948dc-6e2f-4c7b-9f82-955dd55e25ac" data-name="triangle36" class="aca62a27-0bf8-4f74-a477-5833b8be8d76" points="1957.52 1977.04 1879.64 1972.49 1999 1552.27 1957.52 1977.04"/><polygon id="a3ae6e13-d1e9-4c1a-a32e-819b69566504" data-name="triangle36" class="aca62a27-0bf8-4f74-a477-5833b8be8d76" points="1999 1552.27 1770.38 1651.06 1732.72 1464.1 1999 1552.27"/><polygon id="ed937262-156b-4146-bf25-10333e7362f3" data-name="triangle36" class="aca62a27-0bf8-4f74-a477-5833b8be8d76" points="1770.38 1651.06 1656.32 1592.02 1732.72 1464.1 1770.38 1651.06"/><polygon id="ae74f565-585f-45e8-a3d5-89ab495f7293" data-name="triangle36" class="aca62a27-0bf8-4f74-a477-5833b8be8d76" points="1879.97 1187.02 1826.82 1361.75 1732.72 1464.1 1879.97 1187.02"/><polygon id="efa73e25-9de2-4b27-8ace-3b8cd13b8556" data-name="triangle36" class="aca62a27-0bf8-4f74-a477-5833b8be8d76" points="1742.97 1160.02 1427.78 1578.25 1595.72 1437.1 1742.97 1160.02"/><polygon id="ffdbadcd-b4ab-4267-982d-4740735e84a5" data-name="triangle36" class="babb428d-1695-4eff-ad50-0848f78786e9" points="1656.32 1592.02 1564.78 1605.25 1732.72 1464.1 1656.32 1592.02"/><polygon id="a5f8d9f9-4367-448a-bb23-480c89626761" data-name="triangle36" class="aca62a27-0bf8-4f74-a477-5833b8be8d76" points="1962.09 1368.67 1826.82 1361.75 1732.72 1464.1 1962.09 1368.67"/><polygon id="f892d781-28cf-4826-b423-77fcde8c3147" data-name="triangle36" class="aca62a27-0bf8-4f74-a477-5833b8be8d76" points="1962.09 1368.67 1999 1552.27 1732.72 1464.1 1962.09 1368.67"/><polygon id="e8e11e0a-eaeb-416e-a1c6-776889ce1b08" data-name="triangle36" class="aca62a27-0bf8-4f74-a477-5833b8be8d76" points="1462.44 1853.9 1281.5 1717.49 1364.81 2005.11 1462.44 1853.9"/><polygon id="f5a6638e-6771-47d0-a9ab-ee52066dbaba" data-name="triangle36" class="aca62a27-0bf8-4f74-a477-5833b8be8d76" points="1462.44 1853.9 1462.27 2029.23 1364.81 2005.11 1462.44 1853.9"/><polygon id="f35bd868-8db8-4587-b7e6-642ff60be99b" data-name="triangle36" class="aca62a27-0bf8-4f74-a477-5833b8be8d76" points="1281.5 1717.49 1262.53 2060 1364.81 2005.11 1281.5 1717.49"/><polygon id="eb0ced74-e016-4702-8da6-a691f22cbf66" data-name="triangle36" class="babb428d-1695-4eff-ad50-0848f78786e9" points="-41.83 1775.18 76.05 1708.46 124.92 1884.43 -41.83 1775.18"/><polygon id="fd6bdfcf-836a-4479-8648-edbf6713c9a1" data-name="triangle36" class="aca62a27-0bf8-4f74-a477-5833b8be8d76" points="-31.51 1434.02 96.42 1422.66 37.32 1212.15 -31.51 1434.02"/><polygon id="b34ae895-d596-4024-bdf7-023520b0d3bf" data-name="triangle36" class="aca62a27-0bf8-4f74-a477-5833b8be8d76" points="-31.51 1434.02 37.32 1212.15 -74.15 1122.8 -31.51 1434.02"/><polygon id="babbd513-700b-44c7-8e94-33c2f0c728dd" data-name="triangle36" class="aca62a27-0bf8-4f74-a477-5833b8be8d76" points="381.68 1685.22 346.73 1611.6 412.09 1613.37 381.68 1685.22"/><polygon id="b678ef4b-8858-4290-a914-0971f0e666d0" data-name="triangle36" class="aca62a27-0bf8-4f74-a477-5833b8be8d76" points="346.73 1611.6 441.92 1404.42 412.09 1613.37 346.73 1611.6"/><polygon id="a657c3f8-425b-4f78-b69c-44f3cd29118c" data-name="triangle36" class="aca62a27-0bf8-4f74-a477-5833b8be8d76" points="96.42 1422.66 37.32 1212.15 166.58 1362.39 96.42 1422.66"/><polygon id="b9ece603-0490-4f56-8c07-be10de2c5a75" data-name="triangle36" class="aca62a27-0bf8-4f74-a477-5833b8be8d76" points="37.32 1212.15 119.56 1097.64 166.58 1362.39 37.32 1212.15"/><polygon id="ac118c69-835a-4b19-86a1-fa74e15f3106" data-name="triangle36" class="aca62a27-0bf8-4f74-a477-5833b8be8d76" points="381.68 1685.22 346.73 1611.6 243.91 1479.99 381.68 1685.22"/><polygon id="bf0cbd60-e930-4bb1-b8b6-503de5352f5f" data-name="triangle36" class="aca62a27-0bf8-4f74-a477-5833b8be8d76" points="345.73 1516.6 440.92 1309.42 242.91 1384.99 345.73 1516.6"/><polygon id="b1b8ad50-7d95-4ba6-b1a5-cf04c227c5e0" data-name="triangle36" class="aca62a27-0bf8-4f74-a477-5833b8be8d76" points="381.68 1685.22 412.09 1613.37 767.92 1866.79 381.68 1685.22"/><polygon id="b14ee12e-e2ce-485e-8d3d-e72400715317" data-name="triangle36" class="aca62a27-0bf8-4f74-a477-5833b8be8d76" points="-171.46 1640.04 -31.51 1434.02 100.56 1571.6 -171.46 1640.04"/><polygon id="b4f6b3eb-ad54-4dbc-8bf7-2c3e5c38f2dc" data-name="triangle36" class="aca62a27-0bf8-4f74-a477-5833b8be8d76" points="-31.51 1434.02 96.42 1422.66 100.56 1571.6 -31.51 1434.02"/><polygon id="a8b60ff5-644a-492c-86b0-4276c2e55848" data-name="triangle36" class="aca62a27-0bf8-4f74-a477-5833b8be8d76" points="124.92 1884.43 76.05 1708.46 100.56 1571.6 124.92 1884.43"/><polygon id="a2131fdc-c579-443a-a8c7-a6472ab72e65" data-name="triangle36" class="aca62a27-0bf8-4f74-a477-5833b8be8d76" points="124.92 1884.43 166.58 1362.39 100.56 1571.6 124.92 1884.43"/><polygon id="bb97f637-80b5-4d30-9b08-b5e4b79167fa" data-name="triangle36" class="babb428d-1695-4eff-ad50-0848f78786e9" points="96.42 1422.66 166.58 1362.39 100.56 1571.6 96.42 1422.66"/><polygon id="be54be0c-e167-4e3f-a7af-493a40a6226c" data-name="triangle36" class="aca62a27-0bf8-4f74-a477-5833b8be8d76" points="-41.83 1775.18 76.05 1708.46 100.56 1571.6 -41.83 1775.18"/><polygon id="f4d899ec-7e59-4d48-a863-b0a40b8c69e8" data-name="triangle36" class="aca62a27-0bf8-4f74-a477-5833b8be8d76" points="-41.83 1775.18 -171.46 1640.04 100.56 1571.6 -41.83 1775.18"/><polygon id="fd90d34c-f3bd-4cf6-8a7b-448fb9cc22d4" data-name="triangle36" class="babb428d-1695-4eff-ad50-0848f78786e9" points="669.9 2076.91 643.09 1944.14 825.54 1952.33 669.9 2076.91"/><polygon id="abd54765-0ba6-4639-a5f5-399c1cec115b" data-name="triangle36" class="aca62a27-0bf8-4f74-a477-5833b8be8d76" points="348.81 1961.15 377.75 1836.03 159.29 1826.83 348.81 1961.15"/><polygon id="b70729d7-3ea3-40c9-be10-8f72b1a0066e" data-name="triangle36" class="aca62a27-0bf8-4f74-a477-5833b8be8d76" points="348.81 1961.15 159.29 1826.83 39.74 1905.04 348.81 1961.15"/><polygon id="b5b48bf9-be11-4ced-9a47-1057bb3135af" data-name="triangle36" class="aca62a27-0bf8-4f74-a477-5833b8be8d76" points="348.81 1961.15 30.96 1974.36 39.74 1905.04 348.81 1961.15"/><polygon id="bdbb2eba-04dd-41bc-b92e-c5b2881419b8" data-name="triangle36" class="babb428d-1695-4eff-ad50-0848f78786e9" points="159.29 1826.83 75.98 1713.09 39.74 1905.04 159.29 1826.83"/><polygon id="aa55d162-53a7-4584-a87c-72c17e475294" data-name="triangle36" class="aca62a27-0bf8-4f74-a477-5833b8be8d76" points="75.98 1713.09 -93.92 1756.38 39.74 1905.04 75.98 1713.09"/><polygon id="aab97dd5-2647-4fcd-9434-c3ebcfd30680" data-name="triangle36" class="aca62a27-0bf8-4f74-a477-5833b8be8d76" points="30.96 1974.36 39.74 1905.04 -27.46 1956.68 30.96 1974.36"/><polygon id="b9f20019-0fc2-49a2-878e-9243b9ad6fcb" data-name="triangle36" class="aca62a27-0bf8-4f74-a477-5833b8be8d76" points="39.74 1905.04 -93.92 1756.38 -27.46 1956.68 39.74 1905.04"/><polygon id="a7dc42c2-1381-424d-90b9-8c5a25df2439" data-name="triangle36" class="aca62a27-0bf8-4f74-a477-5833b8be8d76" points="348.81 1961.15 30.96 1974.36 64.48 2146.67 348.81 1961.15"/><polygon id="b3962073-3a7b-497c-89ca-053300255782" data-name="triangle36" class="aca62a27-0bf8-4f74-a477-5833b8be8d76" points="9.28 2181.7 -27.46 1956.68 64.48 2146.67 9.28 2181.7"/><polygon id="eb5ebbab-4188-4980-86e0-c506f21312fe" data-name="triangle36" class="aca62a27-0bf8-4f74-a477-5833b8be8d76" points="30.96 1974.36 -27.46 1956.68 64.48 2146.67 30.96 1974.36"/><polygon id="bfb2c476-7fec-4cbd-b4b1-647bb7f15b36" data-name="triangle36" class="aca62a27-0bf8-4f74-a477-5833b8be8d76" points="825.54 1952.33 163.29 1503.99 342.24 1750.62 825.54 1952.33"/><polygon id="bd19da8f-da4e-48a6-b580-58d7ae9179cc" data-name="triangle36" class="aca62a27-0bf8-4f74-a477-5833b8be8d76" points="377.75 1836.03 159.29 1826.83 342.24 1750.62 377.75 1836.03"/><polygon id="a2ae11ac-5242-4324-99fd-2cee1f61cd2c" data-name="triangle36" class="aca62a27-0bf8-4f74-a477-5833b8be8d76" points="159.29 1826.83 75.98 1713.09 342.24 1750.62 159.29 1826.83"/><polygon id="ab5ba5bd-d5e5-471b-99c2-63696590d754" data-name="triangle36" class="a90f38a8-779e-4ca5-a752-6db798f12dc7" points="75.98 1713.09 163.29 1503.99 342.24 1750.62 75.98 1713.09"/><polygon id="ebed2f57-dd7e-46ac-ae8d-85b82bd085ba" data-name="triangle36" class="babb428d-1695-4eff-ad50-0848f78786e9" points="348.81 1961.15 64.48 2146.67 501.19 2158.16 348.81 1961.15"/><polygon id="f215b594-e38b-4457-bdb6-795d4cb6a025" data-name="triangle36" class="aca62a27-0bf8-4f74-a477-5833b8be8d76" points="501.19 2158.16 348.81 1961.15 520.61 1878.34 501.19 2158.16"/><polygon id="ba304f56-0e18-4a90-9b31-7777c8e05684" data-name="triangle36" class="aca62a27-0bf8-4f74-a477-5833b8be8d76" points="348.81 1961.15 377.75 1836.03 520.61 1878.34 348.81 1961.15"/><polygon id="b5ba69d5-fc26-472d-9028-17faff7bb848" data-name="triangle36" class="aca62a27-0bf8-4f74-a477-5833b8be8d76" points="825.54 1952.33 643.09 1944.14 520.61 1878.34 825.54 1952.33"/><polygon id="b270b0ac-bc96-4906-adcb-ae6ca6619409" data-name="triangle36" class="aca62a27-0bf8-4f74-a477-5833b8be8d76" points="825.54 1952.33 342.24 1750.62 520.61 1878.34 825.54 1952.33"/><polygon id="b15b47bf-62be-4c78-aad2-f222d74f3fb1" data-name="triangle36" class="babb428d-1695-4eff-ad50-0848f78786e9" points="377.75 1836.03 342.24 1750.62 520.61 1878.34 377.75 1836.03"/><polygon id="b8da84d2-8c0f-434c-b451-0cd378952fc9" data-name="triangle36" class="aca62a27-0bf8-4f74-a477-5833b8be8d76" points="669.9 2076.91 643.09 1944.14 520.61 1878.34 669.9 2076.91"/><polygon id="f4bd4f41-5322-4704-bca3-2bdd77ec4527" data-name="triangle36" class="aca62a27-0bf8-4f74-a477-5833b8be8d76" points="669.9 2076.91 501.19 2158.16 520.61 1878.34 669.9 2076.91"/><polygon id="fb6891d5-b9b8-4d5c-9098-cb92a0588ec2" data-name="triangle36" class="aca62a27-0bf8-4f74-a477-5833b8be8d76" points="75.98 1713.09 163.29 1503.99 -94.71 1655.98 75.98 1713.09"/><polygon id="f5bc9bae-6b4a-4bc7-9479-1c792f854186" data-name="triangle36" class="aca62a27-0bf8-4f74-a477-5833b8be8d76" points="75.98 1713.09 -93.92 1756.38 -94.71 1655.98 75.98 1713.09"/><polygon id="be9776b3-3e6d-468f-b5d9-d0dd73543db2" data-name="triangle36" class="aca62a27-0bf8-4f74-a477-5833b8be8d76" points="163.29 1503.99 -173.23 1570.5 -94.71 1655.98 163.29 1503.99"/><polygon id="a0297b4f-ecba-4364-870c-651925a33fc2" data-name="triangle36" class="babb428d-1695-4eff-ad50-0848f78786e9" points="173.35 190.21 257.06 296.69 90.44 371.51 173.35 190.21"/><polygon id="f6a54ed3-e665-45a1-b1a5-56c8d439c00d" data-name="triangle36" class="aca62a27-0bf8-4f74-a477-5833b8be8d76" points="512.18 149.05 542.66 273.81 741.88 183.7 512.18 149.05"/><polygon id="f126d01a-4c24-42ca-b812-4af9c7293877" data-name="triangle36" class="aca62a27-0bf8-4f74-a477-5833b8be8d76" points="512.18 149.05 741.88 183.7 813.43 60.05 512.18 149.05"/><polygon id="be3aba37-5172-41bc-8b29-4294cbbc60cb" data-name="triangle36" class="aca62a27-0bf8-4f74-a477-5833b8be8d76" points="512.18 149.05 790.07 -5.81 813.43 60.05 512.18 149.05"/><polygon id="b4664ddc-e45c-47c2-b64c-d85bc2090989" data-name="triangle36" class="babb428d-1695-4eff-ad50-0848f78786e9" points="741.88 183.7 867.46 247.76 813.43 60.05 741.88 183.7"/><polygon id="ec95b387-3705-4e02-b540-eb52857eb233" data-name="triangle36" class="aca62a27-0bf8-4f74-a477-5833b8be8d76" points="867.46 247.76 999.7 132.63 813.43 60.05 867.46 247.76"/><polygon id="be218471-b160-4f8d-b78e-717311a93b87" data-name="triangle36" class="aca62a27-0bf8-4f74-a477-5833b8be8d76" points="790.07 -5.81 813.43 60.05 850.2 -16.32 790.07 -5.81"/><polygon id="b8f12012-8857-43d4-a58a-027db49bd827" data-name="triangle36" class="aca62a27-0bf8-4f74-a477-5833b8be8d76" points="813.43 60.05 999.7 132.63 850.2 -16.32 813.43 60.05"/><polygon id="ae3898da-2efd-4078-90e0-b0363cebedf2" data-name="triangle36" class="aca62a27-0bf8-4f74-a477-5833b8be8d76" points="542.66 273.81 741.88 183.7 612.81 334.1 542.66 273.81"/><polygon id="b7039e05-f2db-4818-9859-2ad0882cd6bc" data-name="triangle36" class="aca62a27-0bf8-4f74-a477-5833b8be8d76" points="741.88 183.7 867.46 247.76 612.81 334.1 741.88 183.7"/><polygon id="b09ad30a-2276-40e1-b9d6-89e03018212b" data-name="triangle36" class="a90f38a8-779e-4ca5-a752-6db798f12dc7" points="849.46 341.76 865.61 567.78 594.81 428.1 849.46 341.76"/><polygon id="b1a8a229-01ca-4b66-8082-a8882f90f569" data-name="triangle36" class="aca62a27-0bf8-4f74-a477-5833b8be8d76" points="287.44 41.71 512.18 149.05 396.05 300.33 287.44 41.71"/><polygon id="fd44141e-3de9-405a-ae1e-bc93168a20a9" data-name="triangle36" class="aca62a27-0bf8-4f74-a477-5833b8be8d76" points="512.18 149.05 542.66 273.81 396.05 300.33 512.18 149.05"/><polygon id="aa0657ff-edcf-44a0-add1-d5792818e315" data-name="triangle36" class="aca62a27-0bf8-4f74-a477-5833b8be8d76" points="90.44 371.51 257.06 296.69 396.05 300.33 90.44 371.51"/><polygon id="bc93a5f2-7ee9-468a-bc8f-24930e6eddec" data-name="triangle36" class="babb428d-1695-4eff-ad50-0848f78786e9" points="542.66 273.81 612.81 334.1 396.05 300.33 542.66 273.81"/><polygon id="fcfa69e6-8194-4a71-82ca-021d90f593d7" data-name="triangle36" class="aca62a27-0bf8-4f74-a477-5833b8be8d76" points="173.35 190.21 257.06 296.69 396.05 300.33 173.35 190.21"/><polygon id="b4154d88-fe97-43ae-bbbf-c9adccd99444" data-name="triangle36" class="aca62a27-0bf8-4f74-a477-5833b8be8d76" points="173.35 190.21 287.44 41.71 396.05 300.33 173.35 190.21"/><polygon id="ab202c15-a8b7-46b6-98b9-b9acef417aa0" data-name="triangle36" class="aca62a27-0bf8-4f74-a477-5833b8be8d76" points="867.46 247.76 999.7 132.63 1045.59 221.93 867.46 247.76"/><polygon id="ea2d24a5-8a18-4517-a97a-cce783829f8b" data-name="triangle36" class="aca62a27-0bf8-4f74-a477-5833b8be8d76" points="1365.47 312.86 1154.61 42.28 1113.61 150.88 1365.47 312.86"/><polygon id="af5d3a79-27a3-4161-8ece-f63323fa23be" data-name="triangle36" class="aca62a27-0bf8-4f74-a477-5833b8be8d76" points="48.3 604.39 176.36 614.16 152.57 396.81 48.3 604.39"/><polygon id="a8c0e4e4-47d7-407d-a04d-ede491cce559" data-name="triangle36" class="aca62a27-0bf8-4f74-a477-5833b8be8d76" points="48.3 604.39 152.57 396.81 57.25 290.4 48.3 604.39"/><polygon id="fa6ee306-9c4d-4f40-9507-320bd56c3f52" data-name="triangle36" class="aca62a27-0bf8-4f74-a477-5833b8be8d76" points="48.3 604.39 -12.6 292.15 57.25 290.4 48.3 604.39"/><polygon id="a9b8e177-2d55-4781-99b1-f9064de4c2d7" data-name="triangle36" class="babb428d-1695-4eff-ad50-0848f78786e9" points="152.57 396.81 252.46 297.33 57.25 290.4 152.57 396.81"/><polygon id="b164bea2-495d-40da-ae7e-0ca5a1a3f309" data-name="triangle36" class="aca62a27-0bf8-4f74-a477-5833b8be8d76" points="252.46 297.33 184.09 135.88 57.25 290.4 252.46 297.33"/><polygon id="e65b7f20-0c92-4a83-8c22-c79c0d96b55f" data-name="triangle36" class="aca62a27-0bf8-4f74-a477-5833b8be8d76" points="-12.6 292.15 57.25 290.4 -3.92 231.74 -12.6 292.15"/><polygon id="fbed4610-bf77-4548-a64d-565a9f029e89" data-name="triangle36" class="aca62a27-0bf8-4f74-a477-5833b8be8d76" points="57.25 290.4 184.09 135.88 -3.92 231.74 57.25 290.4"/><polygon id="f830ad3d-6bcc-4bd2-b14d-e6c56deab6f3" data-name="triangle36" class="aca62a27-0bf8-4f74-a477-5833b8be8d76" points="184.09 135.88 129.89 56.06 -3.92 231.74 184.09 135.88"/><polygon id="af8e0781-2c56-4c9f-89d2-ec61f7790c36" data-name="triangle36" class="aca62a27-0bf8-4f74-a477-5833b8be8d76" points="48.3 604.39 -12.6 292.15 -177.9 351.24 48.3 604.39"/><polygon id="b9dea318-2eaa-4b91-b577-6a2438747452" data-name="triangle36" class="aca62a27-0bf8-4f74-a477-5833b8be8d76" points="176.36 614.16 152.57 396.81 255.45 566.21 176.36 614.16"/><polygon id="f0bf3c79-c64d-4f41-bc05-c40bac032f68" data-name="triangle36" class="aca62a27-0bf8-4f74-a477-5833b8be8d76" points="152.57 396.81 252.46 297.33 255.45 566.21 152.57 396.81"/><polygon id="a0c7c67b-8313-4ab3-8bcc-7a5cc31798dc" data-name="triangle36" class="a90f38a8-779e-4ca5-a752-6db798f12dc7" points="252.46 297.33 472.33 352.17 255.45 566.21 252.46 297.33"/><polygon id="b7e6bbe8-5504-4b05-b8dd-90060bf353c3" data-name="triangle36" class="aca62a27-0bf8-4f74-a477-5833b8be8d76" points="252.46 297.33 472.33 352.17 283.23 119.99 252.46 297.33"/><polygon id="ebb9e0b7-f362-41dc-a78a-aa97c68f2ed8" data-name="triangle36" class="aca62a27-0bf8-4f74-a477-5833b8be8d76" points="252.46 297.33 184.09 135.88 283.23 119.99 252.46 297.33"/><polygon id="f592a847-0e4a-420d-b91f-582982792f56" data-name="triangle36" class="aca62a27-0bf8-4f74-a477-5833b8be8d76" points="472.33 352.17 355.92 29.5 283.23 119.99 472.33 352.17"/><polygon id="a5b9c937-8174-401c-b21e-0550d6df8bbd" data-name="triangle36" class="aca62a27-0bf8-4f74-a477-5833b8be8d76" points="184.09 135.88 129.89 56.06 283.23 119.99 184.09 135.88"/><polygon id="aa5412d9-c687-4054-8ffe-55d656623dd7" data-name="triangle36" class="aca62a27-0bf8-4f74-a477-5833b8be8d76" points="129.89 56.06 355.92 29.5 283.23 119.99 129.89 56.06"/><polygon id="a03b285a-cd1b-4850-a794-90e4b731ab3b" data-name="triangle36" class="aca62a27-0bf8-4f74-a477-5833b8be8d76" points="1791.69 99.9 1678.37 160.35 1815.05 331.02 1791.69 99.9"/><polygon id="bed1f71e-651f-4d97-9a37-abfdafcf9766" data-name="triangle36" class="aca62a27-0bf8-4f74-a477-5833b8be8d76" points="1791.69 99.9 1815.05 331.02 1952.57 369.7 1791.69 99.9"/><polygon id="fedbaf32-6cb3-4cfe-abb5-5a905c472ba9" data-name="triangle36" class="aca62a27-0bf8-4f74-a477-5833b8be8d76" points="1791.69 99.9 2010.58 330.75 1952.57 369.7 1791.69 99.9"/><polygon id="a02fee0c-eea1-498a-8a1e-2d17dce74f3f" data-name="triangle36" class="babb428d-1695-4eff-ad50-0848f78786e9" points="1815.05 331.02 1784.11 468.57 1952.57 369.7 1815.05 331.02"/><polygon id="a39ca1cc-91e8-43d9-b9ce-4d191d82cc73" data-name="triangle36" class="aca62a27-0bf8-4f74-a477-5833b8be8d76" points="1784.11 468.57 1928.42 568.14 1952.57 369.7 1784.11 468.57"/><polygon id="fb3b1a69-f830-449e-b295-708dfd8e08db" data-name="triangle36" class="aca62a27-0bf8-4f74-a477-5833b8be8d76" points="2010.58 330.75 1952.57 369.7 2035.66 386.39 2010.58 330.75"/><polygon id="b761fce1-9526-46ec-bdb3-a666ae84f649" data-name="triangle36" class="aca62a27-0bf8-4f74-a477-5833b8be8d76" points="1952.57 369.7 1928.42 568.14 2035.66 386.39 1952.57 369.7"/><polygon id="f6d7161f-b68f-4223-9e07-8091e587b308" data-name="triangle36" class="aca62a27-0bf8-4f74-a477-5833b8be8d76" points="1791.69 99.9 2010.58 330.75 2118.39 192.21 1791.69 99.9"/><polygon id="a595ae67-1167-4766-9538-5d0dab652ab0" data-name="triangle36" class="aca62a27-0bf8-4f74-a477-5833b8be8d76" points="1313.18 30.18 1374.13 84.28 1313.27 108.2 1313.18 30.18"/><polygon id="aff3d336-c6fc-4ed1-85aa-39219c83d107" data-name="triangle36" class="aca62a27-0bf8-4f74-a477-5833b8be8d76" points="1374.13 84.28 1367.48 312.19 1313.27 108.2 1374.13 84.28"/><polygon id="f32ccddc-5980-4a22-a20a-5adde8cf305b" data-name="triangle36" class="aca62a27-0bf8-4f74-a477-5833b8be8d76" points="1678.37 160.35 1815.05 331.02 1637.35 243.25 1678.37 160.35"/><polygon id="a2d7a170-e011-42bd-80f6-ad5d7a5e57a8" data-name="triangle36" class="aca62a27-0bf8-4f74-a477-5833b8be8d76" points="1815.05 331.02 1784.11 468.57 1637.35 243.25 1815.05 331.02"/><polygon id="a6b50bc8-cb40-45ec-b4e0-046f697b32a8" data-name="triangle36" class="a90f38a8-779e-4ca5-a752-6db798f12dc7" points="1259.11 399.57 1044.13 471.23 1112.35 174.25 1259.11 399.57"/><polygon id="b97c5556-5d05-49f0-a341-b00cbdf2f7b2" data-name="triangle36" class="aca62a27-0bf8-4f74-a477-5833b8be8d76" points="1313.18 30.18 1374.13 84.28 1520.21 165.23 1313.18 30.18"/><polygon id="f0341a6b-e1cb-4b26-921f-f12115c61976" data-name="triangle36" class="aca62a27-0bf8-4f74-a477-5833b8be8d76" points="1374.13 84.28 1367.48 312.19 1520.21 165.23 1374.13 84.28"/><polygon id="abec3baa-b4fc-4e33-9e22-3f6d6349dc53" data-name="triangle36" class="aca62a27-0bf8-4f74-a477-5833b8be8d76" points="1313.18 30.18 1313.27 108.2 886.69 14.02 1313.18 30.18"/><polygon id="ff9bedf5-41d2-45f9-a689-2772c003eeb1" data-name="triangle36" class="aca62a27-0bf8-4f74-a477-5833b8be8d76" points="1791.69 99.9 1678.37 160.35 1616.35 24.89 1791.69 99.9"/><polygon id="fffff3eb-23a5-496e-917d-ae36ca916353" data-name="triangle36" class="babb428d-1695-4eff-ad50-0848f78786e9" points="1678.37 160.35 1637.35 243.25 1616.35 24.89 1678.37 160.35"/><polygon id="fe4d42ff-04e4-4c63-a36b-3bdb9f5dbef8" data-name="triangle36" class="aca62a27-0bf8-4f74-a477-5833b8be8d76" points="1465.8 284.5 1316.05 454.57 1609.16 393.32 1465.8 284.5"/><polygon id="fe64b21e-877b-4f39-9715-e9825efa0025" data-name="triangle36" class="aca62a27-0bf8-4f74-a477-5833b8be8d76" points="1784.11 468.57 1928.42 568.14 1853.28 634.74 1784.11 468.57"/><polygon id="a9bb8a6c-2e5b-410d-99e4-440d68369dc9" data-name="triangle36" class="aca62a27-0bf8-4f74-a477-5833b8be8d76" points="800.23 -42.2 1585.03 111.64 1323.92 -45.43 800.23 -42.2"/><path class="e1fa35b8-5a40-411c-8fbb-d13fa227a583" d="M158.46,88h21.48L103.56,251.54H82.09Z"/><path class="bfa77810-6d2b-40ab-ac02-d688bde3a965" d="M229.16,88h21.47L174.26,251.54H152.78Z"/><path class="b9555772-5c54-4294-9d7b-26562dee0527" d="M301.21,88h21.47L246.31,251.54H224.83Z"/><path class="b9555772-5c54-4294-9d7b-26562dee0527" d="M1560.35,1869.64a7.43,7.43,0,0,1-6.49-3.43c-1.56-2.29-2.35-5.43-2.35-9.44s.79-7.21,2.37-9.49a7.5,7.5,0,0,1,6.51-3.42q4.13,0,6.49,4.08v-13h6.41V1869h-5.77l-.64-3.63A6.79,6.79,0,0,1,1560.35,1869.64Zm2-5.26a3.7,3.7,0,0,0,3.27-2.07,10.86,10.86,0,0,0,1.22-5.52,10.63,10.63,0,0,0-1.24-5.51,3.73,3.73,0,0,0-3.32-2.07,3.59,3.59,0,0,0-3.21,2,10.84,10.84,0,0,0-1.17,5.45,11.12,11.12,0,0,0,1.22,5.63A3.64,3.64,0,0,0,1562.39,1864.38Z"/><path class="b9555772-5c54-4294-9d7b-26562dee0527" d="M1591.31,1869.64q-6.35,0-9.64-3.28t-3.3-9.48a16,16,0,0,1,1.36-6.85,10.17,10.17,0,0,1,4.07-4.55,13,13,0,0,1,6.78-1.62,10.66,10.66,0,0,1,5.81,1.55,10.43,10.43,0,0,1,3.81,4.33,14.62,14.62,0,0,1,1.34,6.46v2.61H1584.9q0,5.75,6.71,5.74a17.37,17.37,0,0,0,8.9-2.65v5.9A23.9,23.9,0,0,1,1591.31,1869.64Zm3.77-15.65a5.37,5.37,0,0,0-1.25-3.85,4.74,4.74,0,0,0-3.58-1.31,5,5,0,0,0-3.7,1.34A6,6,0,0,0,1585,1854Z"/><path class="b9555772-5c54-4294-9d7b-26562dee0527" d="M1605.36,1844.45h6.51l5.24,19.16,5.26-19.16h6.51l-7.8,24.55h-7.91Z"/><path class="b9555772-5c54-4294-9d7b-26562dee0527" d="M1645.37,1869.64q-6.33,0-9.63-3.28t-3.3-9.48a16,16,0,0,1,1.36-6.85,10.14,10.14,0,0,1,4.06-4.55,13.05,13.05,0,0,1,6.79-1.62,10.71,10.71,0,0,1,5.81,1.55,10.48,10.48,0,0,1,3.8,4.33,14.62,14.62,0,0,1,1.35,6.46v2.61H1639q0,5.75,6.71,5.74a17.4,17.4,0,0,0,8.9-2.65v5.9A23.92,23.92,0,0,1,1645.37,1869.64Zm3.77-15.65a5.33,5.33,0,0,0-1.25-3.85,4.7,4.7,0,0,0-3.57-1.31,5,5,0,0,0-3.71,1.34A6,6,0,0,0,1639,1854Z"/><path class="b9555772-5c54-4294-9d7b-26562dee0527" d="M1675,1869.18q-4.56,0-6.57-2.4c-1.34-1.6-2-4.21-2-7.84v-19.12h-6.52v-4.93h12.94v24a7,7,0,0,0,.91,4.08,3.54,3.54,0,0,0,3,1.23h5.13v4.93Z"/><path class="b9555772-5c54-4294-9d7b-26562dee0527" d="M1698.21,1869.64a11.28,11.28,0,0,1-6-1.57,10.27,10.27,0,0,1-3.94-4.46,17.55,17.55,0,0,1,0-13.69,10.31,10.31,0,0,1,4-4.48,11.42,11.42,0,0,1,6.11-1.58,11.29,11.29,0,0,1,6,1.54,10.24,10.24,0,0,1,3.89,4.42,15.78,15.78,0,0,1,1.37,6.82,16.1,16.1,0,0,1-1.39,6.93,10.42,10.42,0,0,1-3.94,4.49A11.27,11.27,0,0,1,1698.21,1869.64Zm0-5.22a4.1,4.1,0,0,0,3.6-2.07,12.48,12.48,0,0,0,0-11.21,4.19,4.19,0,0,0-7.22,0,12.45,12.45,0,0,0,0,11.2A4.12,4.12,0,0,0,1698.23,1864.42Z"/><path class="b9555772-5c54-4294-9d7b-26562dee0527" d="M1715,1844.45h5.76l.64,3.68a6.79,6.79,0,0,1,6.53-4.27,7.43,7.43,0,0,1,6.49,3.43c1.56,2.29,2.35,5.45,2.35,9.48s-.79,7.19-2.35,9.46a7.42,7.42,0,0,1-6.45,3.41,7.14,7.14,0,0,1-6.57-4.1v12.8H1715Zm10.89,19.84a3.67,3.67,0,0,0,3.24-2.09,11.2,11.2,0,0,0,1.21-5.63,10.77,10.77,0,0,0-1.17-5.44,3.58,3.58,0,0,0-3.21-2,3.73,3.73,0,0,0-3.32,2.07,12.93,12.93,0,0,0,0,11A3.67,3.67,0,0,0,1725.92,1864.29Z"/><path class="b9555772-5c54-4294-9d7b-26562dee0527" d="M1753.5,1869.64q-6.33,0-9.63-3.28t-3.3-9.48a16,16,0,0,1,1.36-6.85,10.14,10.14,0,0,1,4.06-4.55,13.05,13.05,0,0,1,6.79-1.62,10.68,10.68,0,0,1,5.81,1.55,10.41,10.41,0,0,1,3.8,4.33,14.62,14.62,0,0,1,1.35,6.46v2.61H1747.1q0,5.75,6.71,5.74a17.4,17.4,0,0,0,8.9-2.65v5.9A23.92,23.92,0,0,1,1753.5,1869.64Zm3.77-15.65a5.33,5.33,0,0,0-1.25-3.85,4.7,4.7,0,0,0-3.57-1.31,5,5,0,0,0-3.7,1.34,6,6,0,0,0-1.58,3.82Z"/><path class="b9555772-5c54-4294-9d7b-26562dee0527" d="M1771.09,1844.45h5.79l.63,3.81a7.14,7.14,0,0,1,2.88-3.24,8.75,8.75,0,0,1,4.55-1.16,10.22,10.22,0,0,1,5,1.25v6.11a8,8,0,0,0-5.57-1.93,7.42,7.42,0,0,0-4.51,1.28,5.46,5.46,0,0,0-2.15,3.66,9.4,9.4,0,0,0-.16,1.38c0,.54,0,1.23,0,2.08V1869h-6.42Z"/><path class="b9555772-5c54-4294-9d7b-26562dee0527" d="M1806.19,1869.64a31.88,31.88,0,0,1-9.19-1.53v-5.62a17.2,17.2,0,0,0,8.66,2.48q4.52,0,4.52-2.67a2.2,2.2,0,0,0-1.08-1.91,10.91,10.91,0,0,0-3.66-1.27l-1.77-.4q-7.07-1.58-7.06-7.25a6.65,6.65,0,0,1,2.62-5.63q2.61-2,7.59-2a22.34,22.34,0,0,1,3.83.33,24.64,24.64,0,0,1,3.91,1v5.61a15.89,15.89,0,0,0-3.69-1.75,12.06,12.06,0,0,0-3.63-.55,7.34,7.34,0,0,0-3.38.63,1.92,1.92,0,0,0-1.18,1.71,2,2,0,0,0,1.11,1.7,11.65,11.65,0,0,0,3.58,1.29l2.08.5a9.7,9.7,0,0,1,5.14,2.67,7.07,7.07,0,0,1,1.64,4.87Q1816.23,1869.64,1806.19,1869.64Z"/><path class="b9555772-5c54-4294-9d7b-26562dee0527" d="M1857.12,1847.58h-6.56v-3.13h6.56v-1.71c0-2.69.61-4.67,1.85-5.94s3.16-1.91,5.78-1.91h4.84v3.36H1865a4.09,4.09,0,0,0-3,.88,4.51,4.51,0,0,0-.86,3.15v2.17h8.44v3.13h-8.44V1869h-4Z"/><path class="b9555772-5c54-4294-9d7b-26562dee0527" d="M1887.48,1869.64q-5.13,0-7.84-3.32t-2.7-9.55q0-6.24,2.72-9.58t7.8-3.33c3.39,0,6,1.1,7.79,3.32s2.71,5.42,2.71,9.61-.9,7.35-2.69,9.55S1890.87,1869.64,1887.48,1869.64Zm0-3.42a5.21,5.21,0,0,0,4.62-2.46c1.07-1.63,1.61-4,1.61-7a12.78,12.78,0,0,0-1.61-7,5.61,5.61,0,0,0-9.26,0,12.78,12.78,0,0,0-1.61,7c0,3,.54,5.4,1.62,7A5.24,5.24,0,0,0,1887.46,1866.22Z"/><path class="b9555772-5c54-4294-9d7b-26562dee0527" d="M1907.59,1844.45h3.66l.39,4.8a8.34,8.34,0,0,1,3.11-4,8.65,8.65,0,0,1,5-1.39,9.08,9.08,0,0,1,5.26,1.53v4.12a8.65,8.65,0,0,0-5.61-1.93,7.07,7.07,0,0,0-5.72,2.38q-2,2.38-2,6.83V1869h-4.05Z"/><path class="b9555772-5c54-4294-9d7b-26562dee0527" d="M1621.3,1925.62c-3,0-5.14-.62-6.39-1.84s-1.88-3.3-1.88-6.25v-13.42h-6.55V1901H1613v-6.42l4-1.76V1901h9.16v3.14h-9.16v13.42a5.46,5.46,0,0,0,1,3.78,4.84,4.84,0,0,0,3.59,1.08h4.54v3.23Z"/><path class="b9555772-5c54-4294-9d7b-26562dee0527" d="M1634.91,1891.41h4v13.25a7.56,7.56,0,0,1,7.26-4.28,6.87,6.87,0,0,1,4.63,1.4,7.25,7.25,0,0,1,2.23,3.66,18.51,18.51,0,0,1,.61,4.87v15.22h-4.06v-15.22a8.17,8.17,0,0,0-1.16-4.87,4.22,4.22,0,0,0-3.61-1.55,5.2,5.2,0,0,0-3.57,1.13,6.17,6.17,0,0,0-1.81,2.9,13.13,13.13,0,0,0-.52,3.73v13.88h-4Z"/><path class="b9555772-5c54-4294-9d7b-26562dee0527" d="M1668.83,1926.16a8.48,8.48,0,0,1-5.86-2.05,8.69,8.69,0,0,1-.78-10.85,8.14,8.14,0,0,1,4-2.51,18.82,18.82,0,0,1,5.28-.72h5.42v-.64c0-2.09-.53-3.54-1.59-4.36a7.15,7.15,0,0,0-4.46-1.23,15.93,15.93,0,0,0-4.39.61,17.24,17.24,0,0,0-4,1.71v-4a34,34,0,0,1,4.08-1.23,18.49,18.49,0,0,1,4.21-.48,15.22,15.22,0,0,1,4.26.6,9,9,0,0,1,3.59,2,6.65,6.65,0,0,1,2,3.67,24.42,24.42,0,0,1,.36,4.89v5c0,1.37.07,2.89.23,4.56a14.33,14.33,0,0,0,1.06,4.43h-4.06a10.31,10.31,0,0,1-.59-1.83c-.14-.65-.26-1.29-.35-1.9a8,8,0,0,1-3.58,3.29A11.36,11.36,0,0,1,1668.83,1926.16Zm1-3.37a6.38,6.38,0,0,0,4.06-1.23,7.1,7.1,0,0,0,2.3-3.21,12.47,12.47,0,0,0,.72-4.27v-.9h-5.11a14.32,14.32,0,0,0-3.34.39,5.39,5.39,0,0,0-2.7,1.46,5.05,5.05,0,0,0,.36,6.61A5.77,5.77,0,0,0,1669.82,1922.79Z"/><path class="b9555772-5c54-4294-9d7b-26562dee0527" d="M1703.54,1925.7a7,7,0,0,1-5.6-2.33,9.82,9.82,0,0,1-2-6.57v-12.67h-5.37V1901H1700v15.83a7,7,0,0,0,1,4.08,3.42,3.42,0,0,0,2.94,1.4h4.72v3.42Zm-7.37-29.18a.58.58,0,0,1-.66-.66v-3.79a.58.58,0,0,1,.66-.66h3.16a.58.58,0,0,1,.66.66v3.79a.58.58,0,0,1-.66.66Z"/><path class="b9555772-5c54-4294-9d7b-26562dee0527" d="M1748.11,1905.91h-6V1901h6v-1.71a11.36,11.36,0,0,1,.8-4.68,4.63,4.63,0,0,1,2.7-2.44,14.73,14.73,0,0,1,5.18-.73h5.29v4.94h-5a2.8,2.8,0,0,0-2,.54,2.68,2.68,0,0,0-.56,1.93V1901h7.55v4.94h-7.55v19.62h-6.42Z"/><path class="b9555772-5c54-4294-9d7b-26562dee0527" d="M1771.09,1901h5.79l.63,3.82a7.16,7.16,0,0,1,2.88-3.25,8.75,8.75,0,0,1,4.55-1.16,10.33,10.33,0,0,1,5,1.25v6.12a8,8,0,0,0-5.57-1.93,7.41,7.41,0,0,0-4.51,1.27,5.51,5.51,0,0,0-2.15,3.66,9.4,9.4,0,0,0-.16,1.38c0,.54,0,1.24,0,2.08v11.32h-6.42Z"/><path class="b9555772-5c54-4294-9d7b-26562dee0527" d="M1807.57,1926.16q-6.35,0-9.64-3.27t-3.3-9.49a16.23,16.23,0,0,1,1.36-6.85,10.17,10.17,0,0,1,4.07-4.55,13,13,0,0,1,6.78-1.62,10.58,10.58,0,0,1,5.81,1.56,10.31,10.31,0,0,1,3.81,4.33,14.58,14.58,0,0,1,1.35,6.45v2.61h-16.64q0,5.75,6.71,5.75a17.44,17.44,0,0,0,8.9-2.66v5.9A24,24,0,0,1,1807.57,1926.16Zm3.77-15.65a5.37,5.37,0,0,0-1.25-3.85,4.71,4.71,0,0,0-3.57-1.3,5,5,0,0,0-3.71,1.33,6.07,6.07,0,0,0-1.58,3.82Z"/><path class="b9555772-5c54-4294-9d7b-26562dee0527" d="M1834.6,1926.16q-6.33,0-9.63-3.27t-3.3-9.49a16.07,16.07,0,0,1,1.36-6.85,10.14,10.14,0,0,1,4.06-4.55,13.05,13.05,0,0,1,6.79-1.62,10.63,10.63,0,0,1,5.81,1.56,10.35,10.35,0,0,1,3.8,4.33,14.58,14.58,0,0,1,1.35,6.45v2.61H1828.2q0,5.75,6.71,5.75a17.41,17.41,0,0,0,8.9-2.66v5.9A23.92,23.92,0,0,1,1834.6,1926.16Zm3.77-15.65a5.33,5.33,0,0,0-1.25-3.85,4.7,4.7,0,0,0-3.57-1.3,5,5,0,0,0-3.71,1.33,6.07,6.07,0,0,0-1.57,3.82Z"/><path class="b9555772-5c54-4294-9d7b-26562dee0527" d="M1857.71,1926.16a7.43,7.43,0,0,1-6.49-3.43c-1.56-2.29-2.35-5.43-2.35-9.44s.79-7.21,2.37-9.49a7.5,7.5,0,0,1,6.51-3.42q4.13,0,6.49,4.08v-13h6.4v34.12h-5.76l-.64-3.64A6.79,6.79,0,0,1,1857.71,1926.16Zm2-5.26a3.67,3.67,0,0,0,3.26-2.07,12.93,12.93,0,0,0,0-11,3.73,3.73,0,0,0-3.32-2.07,3.58,3.58,0,0,0-3.21,2,10.77,10.77,0,0,0-1.17,5.44,11.2,11.2,0,0,0,1.21,5.63A3.67,3.67,0,0,0,1859.75,1920.9Z"/><path class="b9555772-5c54-4294-9d7b-26562dee0527" d="M1887.44,1926.16a11.36,11.36,0,0,1-6-1.56,10.36,10.36,0,0,1-3.94-4.47,17.61,17.61,0,0,1,0-13.69,10.38,10.38,0,0,1,4-4.48,11.51,11.51,0,0,1,6.11-1.58,11.29,11.29,0,0,1,6,1.55,10.22,10.22,0,0,1,3.89,4.41,15.78,15.78,0,0,1,1.37,6.82,16,16,0,0,1-1.39,6.93,10.42,10.42,0,0,1-3.94,4.49A11.18,11.18,0,0,1,1887.44,1926.16Zm0-5.21a4.11,4.11,0,0,0,3.6-2.08,12.48,12.48,0,0,0,0-11.21,4.19,4.19,0,0,0-7.22,0,12.45,12.45,0,0,0,0,11.2A4.13,4.13,0,0,0,1887.46,1921Z"/><path class="b9555772-5c54-4294-9d7b-26562dee0527" d="M1902.76,1901h4l.63,2.55a4.85,4.85,0,0,1,1.74-2.31,4.53,4.53,0,0,1,2.65-.83,4.63,4.63,0,0,1,2.78.89,3.48,3.48,0,0,1,1.49,2.16,4.86,4.86,0,0,1,4.7-3q3.09,0,4.29,2.17t1.21,9.14v13.84H1921v-15.77a10.52,10.52,0,0,0-.42-3.64,1.54,1.54,0,0,0-1.53-.94,1.52,1.52,0,0,0-1.5.92,10.08,10.08,0,0,0-.46,3.66v15.77h-5.19v-15.77a10.61,10.61,0,0,0-.44-3.64,1.52,1.52,0,0,0-1.51-.94,1.51,1.51,0,0,0-1.52.88,10,10,0,0,0-.43,3.7v15.77h-5.27Z"/></g></svg>